<?xml version="1.0" standalone="no"?><!DOCTYPE svg PUBLIC "-//W3C//DTD SVG 1.1//EN" "http://www.w3.org/Graphics/SVG/1.1/DTD/svg11.dtd"><svg width="100%" height="100%" viewBox="0 0 317 110" version="1.1" xmlns="http://www.w3.org/2000/svg" xmlns:xlink="http://www.w3.org/1999/xlink" xml:space="preserve" style="fill-rule:evenodd;clip-rule:evenodd;stroke-linejoin:round;stroke-miterlimit:1.41421;"><g id="Layer 1"><path d="M102.691,70.309c-1.469,2.545 -1.59,5.494 -0.593,8.032l-0.026,-0.015c0.988,2.533 0.863,5.473 -0.602,8.011c-1.465,2.537 -3.949,4.115 -6.637,4.526l0.029,0.017c-2.698,0.405 -5.193,1.984 -6.663,4.53c-2.561,4.436 -1.041,10.109 3.395,12.67c4.436,2.561 10.109,1.041 12.67,-3.395c1.47,-2.546 1.59,-5.497 0.592,-8.035l0.029,0.016c-0.988,-2.533 -0.864,-5.473 0.601,-8.011c1.465,-2.537 3.949,-4.115 6.637,-4.526l-0.026,-0.015c2.696,-0.406 5.19,-1.985 6.659,-4.53c2.561,-4.436 1.041,-10.109 -3.395,-12.67c-4.436,-2.561 -10.109,-1.041 -12.67,3.395M15.736,20.106c-1.469,2.545 -1.589,5.494 -0.593,8.032l-0.025,-0.015c0.987,2.533 0.862,5.473 -0.603,8.01c-1.465,2.538 -3.949,4.116 -6.637,4.527l0.029,0.017c-2.697,0.404 -5.193,1.984 -6.663,4.529c-2.561,4.437 -1.041,10.109 3.395,12.67c4.437,2.562 10.109,1.042 12.671,-3.394c1.469,-2.546 1.589,-5.497 0.591,-8.035l0.029,0.016c-0.988,-2.533 -0.864,-5.473 0.602,-8.011c1.465,-2.538 3.949,-4.115 6.636,-4.527l-0.026,-0.015c2.696,-0.405 5.19,-1.984 6.659,-4.529c2.562,-4.436 1.042,-10.109 -3.395,-12.67c-4.436,-2.561 -10.108,-1.042 -12.67,3.395M88.199,45.207c-1.47,2.546 -1.604,5.489 -0.606,8.027c0.987,2.533 0.849,5.465 -0.617,8.003c-1.465,2.537 -3.935,4.123 -6.622,4.535c-2.697,0.405 -5.178,1.992 -6.648,4.537c-1.47,2.546 -1.604,5.488 -0.606,8.027c0.988,2.533 0.849,5.465 -0.616,8.003c-1.465,2.537 -3.935,4.123 -6.623,4.534c-2.697,0.405 -5.178,1.992 -6.647,4.538c-2.562,4.436 -1.042,10.109 3.395,12.67c4.436,2.561 10.108,1.041 12.67,-3.395c1.469,-2.545 1.603,-5.488 0.606,-8.026c-0.988,-2.533 -0.85,-5.465 0.615,-8.003c1.465,-2.537 3.935,-4.124 6.623,-4.535c2.697,-0.405 5.178,-1.992 6.648,-4.538c1.47,-2.545 1.603,-5.487 0.606,-8.025c-0.988,-2.533 -0.849,-5.466 0.616,-8.003c1.465,-2.538 3.935,-4.124 6.622,-4.535c2.698,-0.405 5.179,-1.993 6.649,-4.538c2.561,-4.437 1.041,-10.109 -3.395,-12.671c-4.437,-2.561 -10.109,-1.041 -12.67,3.395M44.721,20.106c-1.47,2.545 -1.604,5.488 -0.606,8.026c0.988,2.533 0.849,5.465 -0.616,8.003c-1.465,2.538 -3.935,4.124 -6.623,4.535c-2.697,0.405 -5.178,1.992 -6.647,4.537c-1.47,2.546 -1.604,5.489 -0.606,8.027c0.988,2.533 0.849,5.465 -0.616,8.003c-1.465,2.537 -3.936,4.123 -6.623,4.535c-2.697,0.405 -5.178,1.992 -6.648,4.537c-2.561,4.436 -1.041,10.109 3.395,12.67c4.437,2.561 10.109,1.041 12.67,-3.395c1.47,-2.545 1.604,-5.487 0.606,-8.025c-0.987,-2.533 -0.849,-5.466 0.616,-8.003c1.465,-2.538 3.935,-4.124 6.623,-4.535c2.697,-0.405 5.178,-1.993 6.648,-4.538c1.469,-2.546 1.603,-5.488 0.606,-8.026c-0.988,-2.533 -0.85,-5.465 0.615,-8.003c1.466,-2.538 3.935,-4.124 6.623,-4.535c2.697,-0.405 5.179,-1.992 6.648,-4.538c2.562,-4.436 1.042,-10.109 -3.395,-12.67c-4.436,-2.561 -10.108,-1.042 -12.67,3.395M86.376,16.711c4.436,2.561 5.956,8.234 3.395,12.67c-1.469,2.546 -3.965,4.125 -6.662,4.53l0.028,0.016c-2.687,0.411 -5.171,1.989 -6.636,4.527c-1.466,2.537 -1.59,5.478 -0.602,8.011l-0.028,-0.016c0.997,2.538 0.877,5.488 -0.592,8.034c-1.469,2.544 -3.963,4.123 -6.659,4.529l0.026,0.015c-2.688,0.411 -5.172,1.989 -6.637,4.527c-1.465,2.537 -1.59,5.478 -0.602,8.011l-0.028,-0.017c0.998,2.539 0.878,5.489 -0.592,8.035c-1.47,2.546 -3.966,4.126 -6.664,4.53l0.029,0.017c-2.687,0.411 -5.171,1.989 -6.636,4.527c-1.465,2.537 -1.59,5.478 -0.602,8.011l-0.027,-0.015c0.997,2.537 0.877,5.487 -0.593,8.032c-2.561,4.436 -8.233,5.956 -12.67,3.395c-4.436,-2.561 -5.956,-8.234 -3.395,-12.67c1.47,-2.545 3.964,-4.124 6.661,-4.53l-0.027,-0.015c2.687,-0.411 5.171,-1.989 6.636,-4.527c1.466,-2.538 1.59,-5.478 0.602,-8.011l0.03,0.017c-0.999,-2.539 -0.879,-5.49 0.591,-8.036c1.47,-2.546 3.966,-4.125 6.663,-4.53l-0.029,-0.017c2.688,-0.411 5.172,-1.989 6.637,-4.526c1.465,-2.538 1.589,-5.478 0.602,-8.011l0.026,0.015c-0.997,-2.538 -0.876,-5.487 0.593,-8.032c1.469,-2.545 3.965,-4.124 6.662,-4.529l-0.028,-0.017c2.687,-0.411 5.171,-1.989 6.636,-4.526c1.465,-2.538 1.59,-5.478 0.602,-8.011l0.028,0.016c-0.997,-2.538 -0.878,-5.489 0.592,-8.034c2.561,-4.437 8.234,-5.956 12.67,-3.395" style="fill:#e02926;"/><path d="M115.407,55.761l18.066,-20.149l-18.066,-20.146l12.924,0l11.701,13.568l11.702,-13.568l12.927,0l-18.136,20.146l18.136,20.149l-12.927,0l-11.702,-13.511l-11.702,13.511l-12.923,0Z" style="fill:#1d1d1b;fill-rule:nonzero;"/><path d="M164.696,27.869l0.047,-1.456l0.159,-1.386l0.255,-1.296l0.36,-1.213l0.467,-1.123l0.578,-1.031l0.685,-0.938l0.79,-0.841l0.889,-0.741l1,-0.637l1.09,-0.538l1.193,-0.437l1.282,-0.335l1.372,-0.241l1.467,-0.141l1.549,-0.048l13.208,0l1.551,0.048l1.461,0.141l1.378,0.241l1.282,0.335l1.187,0.437l1.088,0.538l0.998,0.637l0.897,0.741l0.786,0.841l0.689,0.938l0.572,1.031l0.469,1.123l0.364,1.213l0.257,1.296l0.151,1.386l0.049,1.456l0,15.613l-0.049,1.446l-0.151,1.368l-0.257,1.29l-0.364,1.195l-0.469,1.113l-0.58,1.025l-0.681,0.926l-0.794,0.835l-0.895,0.729l-0.992,0.632l-1.096,0.531l-1.185,0.433l-1.284,0.332l-1.37,0.237l-1.461,0.138l-1.551,0.05l-13.208,0l-1.549,-0.05l-1.467,-0.141l-1.372,-0.242l-1.282,-0.334l-1.193,-0.435l-1.09,-0.537l-1,-0.641l-0.889,-0.737l-0.79,-0.842l-0.685,-0.937l-0.578,-1.03l-0.467,-1.124l-0.36,-1.209l-0.255,-1.299l-0.159,-1.386l-0.047,-1.461l0,-15.488ZM191.058,46.397l0.856,-0.051l0.697,-0.146l0.558,-0.228l0.426,-0.302l0.331,-0.38l0.243,-0.481l0.15,-0.604l0.056,-0.758l0,-15.543l-0.056,-0.789l-0.158,-0.631l-0.241,-0.504l-0.331,-0.395l-0.428,-0.314l-0.558,-0.237l-0.689,-0.148l-0.856,-0.056l-13.15,0l-0.86,0.056l-0.691,0.148l-0.552,0.237l-0.432,0.314l-0.333,0.395l-0.241,0.504l-0.152,0.631l-0.055,0.789l0,15.419l0.055,0.792l0.152,0.631l0.241,0.503l0.333,0.396l0.432,0.314l0.552,0.234l0.691,0.153l0.86,0.051l13.15,0Z" style="fill:#1d1d1b;fill-rule:nonzero;"/><path d="M219.436,55.761l-9.891,0l0,-27.893l0.047,-1.456l0.152,-1.386l0.255,-1.296l0.364,-1.213l0.469,-1.123l0.572,-1.031l0.685,-0.938l0.793,-0.84l0.894,-0.742l0.994,-0.637l1.095,-0.538l1.186,-0.437l1.28,-0.335l1.374,-0.241l1.467,-0.141l1.551,-0.048l6.604,0l0,9.364l-6.571,0l-0.859,0.055l-0.696,0.148l-0.551,0.237l-0.43,0.315l-0.329,0.395l-0.241,0.504l-0.161,0.63l-0.053,0.789l0,27.858Z" style="fill:#1d1d1b;fill-rule:nonzero;"/><path d="M262.96,27.98l-0.053,0.758l-0.153,0.606l-0.24,0.479l-0.332,0.38l-0.427,0.302l-0.558,0.228l-0.695,0.149l-0.856,0.051l-16.467,0l0,-3.029l0.056,-0.789l0.152,-0.631l0.241,-0.504l0.331,-0.395l0.434,-0.314l0.551,-0.237l0.69,-0.148l0.862,-0.056l13.15,0l0.856,0.056l0.687,0.148l0.559,0.237l0.428,0.314l0.332,0.395l0.24,0.504l0.159,0.631l0.053,0.789l0,0.076ZM272.804,26.412l-0.15,-1.385l-0.257,-1.296l-0.364,-1.213l-0.469,-1.123l-0.572,-1.031l-0.689,-0.938l-0.786,-0.841l-0.897,-0.741l-1,-0.637l-1.088,-0.538l-1.185,-0.437l-1.282,-0.335l-1.372,-0.241l-1.469,-0.141l-1.549,-0.048l-13.206,0l-1.551,0.048l-1.469,0.141l-1.371,0.241l-1.283,0.335l-1.191,0.437l-1.091,0.538l-0.991,0.637l-0.897,0.741l-0.792,0.841l-0.683,0.938l-0.578,1.031l-0.469,1.123l-0.358,1.213l-0.255,1.296l-0.159,1.385l-0.047,1.457l0,15.488l0.047,1.461l0.159,1.385l0.255,1.3l0.358,1.209l0.469,1.124l0.578,1.03l0.683,0.937l0.792,0.842l0.897,0.737l0.991,0.641l1.091,0.537l1.191,0.435l1.283,0.333l1.371,0.243l1.469,0.141l1.551,0.05l23.089,0l0,-9.365l-23.062,0l-0.862,-0.052l-0.69,-0.152l-0.551,-0.234l-0.434,-0.314l-0.331,-0.396l-0.241,-0.503l-0.152,-0.631l-0.056,-0.792l0,-3.03l16.496,0l1.549,-0.044l1.463,-0.141l1.378,-0.235l1.275,-0.335l1.185,-0.43l1.095,-0.531l0.994,-0.631l0.894,-0.733l0.795,-0.831l0.68,-0.93l0.581,-1.021l0.469,-1.112l0.364,-1.2l0.257,-1.285l0.15,-1.373l0.056,-1.446l0,-0.146l-0.056,-1.457Z" style="fill:#1d1d1b;fill-rule:nonzero;"/><path d="M307.093,44.115l-0.158,0.63l-0.241,0.504l-0.329,0.395l-0.428,0.314l-0.56,0.235l-0.689,0.152l-0.854,0.051l-13.15,0l-0.862,-0.051l-0.689,-0.152l-0.56,-0.235l-0.428,-0.314l-0.329,-0.395l-0.243,-0.504l-0.156,-0.63l-0.056,-0.792l0,-15.419l0.056,-0.79l0.156,-0.63l0.243,-0.504l0.329,-0.395l0.428,-0.315l0.56,-0.236l0.689,-0.149l0.862,-0.055l16.467,0l0,18.493l-0.058,0.792ZM307.151,0l0,15.466l-16.502,0l-1.551,0.049l-1.461,0.14l-1.38,0.241l-1.274,0.335l-1.193,0.438l-1.088,0.538l-1,0.636l-0.895,0.742l-0.788,0.84l-0.687,0.939l-0.572,1.03l-0.469,1.123l-0.366,1.213l-0.254,1.296l-0.154,1.386l-0.047,1.457l0,15.488l0.047,1.461l0.154,1.385l0.254,1.299l0.366,1.21l0.469,1.123l0.572,1.031l0.687,0.937l0.794,0.841l0.889,0.738l1,0.641l1.088,0.537l1.193,0.435l1.274,0.333l1.38,0.243l1.461,0.141l1.551,0.049l13.212,0l1.545,-0.049l1.467,-0.141l1.372,-0.243l1.282,-0.333l1.193,-0.438l1.088,-0.534l1,-0.641l0.889,-0.738l0.792,-0.841l0.683,-0.937l0.58,-1.031l0.469,-1.123l0.358,-1.213l0.261,-1.296l0.153,-1.385l0.047,-1.461l0,-43.357l-9.889,0Z" style="fill:#1d1d1b;fill-rule:nonzero;"/></g></svg>