<?xml version="1.0" encoding="UTF-8" standalone="no"?>
<!-- Created with Inkscape (http://www.inkscape.org/) -->

<svg
   xmlns:dc="http://purl.org/dc/elements/1.1/"
   xmlns:cc="http://creativecommons.org/ns#"
   xmlns:rdf="http://www.w3.org/1999/02/22-rdf-syntax-ns#"
   xmlns:svg="http://www.w3.org/2000/svg"
   xmlns="http://www.w3.org/2000/svg"
   xmlns:xlink="http://www.w3.org/1999/xlink"
   xmlns:sodipodi="http://sodipodi.sourceforge.net/DTD/sodipodi-0.dtd"
   xmlns:inkscape="http://www.inkscape.org/namespaces/inkscape"
   width="917"
   height="268"
   id="svg2"
   version="1.1"
   inkscape:version="0.48.5 r10040"
   sodipodi:docname="nim-logo.svg"
   inkscape:export-filename="/Users/jwecker/src/Nim/web/assets/images/logo-flat.png"
   inkscape:export-xdpi="90"
   inkscape:export-ydpi="90">
  <defs
     id="defs4">
    <linearGradient
       id="linearGradient4716">
      <stop
         style="stop-color:#ffe59a;stop-opacity:1;"
         offset="0"
         id="stop4718" />
      <stop
         style="stop-color:#ffebb1;stop-opacity:1;"
         offset="1"
         id="stop4720" />
    </linearGradient>
    <linearGradient
       id="linearGradient4708">
      <stop
         style="stop-color:#ca9500;stop-opacity:1;"
         offset="0"
         id="stop4710" />
      <stop
         style="stop-color:#b08200;stop-opacity:1;"
         offset="1"
         id="stop4712" />
    </linearGradient>
    <linearGradient
       id="linearGradient4682">
      <stop
         style="stop-color:#ff9306;stop-opacity:1;"
         offset="0"
         id="stop4684" />
      <stop
         style="stop-color:#da7c02;stop-opacity:1;"
         offset="1"
         id="stop4686" />
    </linearGradient>
    <linearGradient
       id="linearGradient3984">
      <stop
         id="stop3986"
         offset="0"
         style="stop-color:#f7c41a;stop-opacity:1;" />
      <stop
         id="stop3988"
         offset="1"
         style="stop-color:#e1b213;stop-opacity:1" />
    </linearGradient>
    <linearGradient
       id="linearGradient3833">
      <stop
         style="stop-color:#f7c41a;stop-opacity:1;"
         offset="0"
         id="stop3835" />
      <stop
         style="stop-color:#bd9510;stop-opacity:1;"
         offset="1"
         id="stop3837" />
    </linearGradient>
  </defs>
  <sodipodi:namedview
     id="base"
     pagecolor="#595959"
     bordercolor="#666666"
     borderopacity="1.0"
     inkscape:pageopacity="0.45490196"
     inkscape:pageshadow="2"
     inkscape:zoom="1.4142136"
     inkscape:cx="412.43066"
     inkscape:cy="231.21192"
     inkscape:document-units="px"
     inkscape:current-layer="layer2"
     showgrid="false"
     fit-margin-top="0"
     fit-margin-left="0"
     fit-margin-right="0"
     fit-margin-bottom="0"
     inkscape:window-width="1440"
     inkscape:window-height="851"
     inkscape:window-x="0"
     inkscape:window-y="0"
     inkscape:window-maximized="1"
     showguides="false"
     inkscape:guide-bbox="true">
    <sodipodi:guide
       orientation="0,1"
       position="235,200"
       id="guide3914" />
    <sodipodi:guide
       orientation="0,1"
       position="498.75,239.25"
       id="guide3918" />
    <sodipodi:guide
       orientation="1,0"
       position="182,224.777"
       id="guide3928" />
    <sodipodi:guide
       orientation="1,0"
       position="189,213.286"
       id="guide3930" />
    <inkscape:grid
       type="xygrid"
       id="grid3936"
       empspacing="7"
       visible="true"
       enabled="true"
       snapvisiblegridlinesonly="true"
       color="#ffb400"
       opacity="0.2"
       empcolor="#ff6700"
       empopacity="0.4627451"
       spacingx="0.5px"
       spacingy="0.5px"
       originx="-327px"
       originy="47.999999px" />
  </sodipodi:namedview>
  <metadata
     id="metadata7">
    <rdf:RDF>
      <cc:Work
         rdf:about="">
        <dc:format>image/svg+xml</dc:format>
        <dc:type
           rdf:resource="http://purl.org/dc/dcmitype/StillImage" />
        <dc:title />
      </cc:Work>
    </rdf:RDF>
  </metadata>
  <g
     inkscape:label="Layer 1"
     inkscape:groupmode="layer"
     id="layer1"
     sodipodi:insensitive="true"
     style="display:none"
     transform="translate(-275.47729,-584.61255)">
    <image
       y="392.14789"
       x="-90.714287"
       id="image3047"
       xlink:href="file:///home/tomasi/Projects/nimrod/logo/new-symbols.png"
       height="329"
       width="800" />
  </g>
  <g
     inkscape:groupmode="layer"
     id="layer2"
     inkscape:label="Layer"
     style="display:inline"
     transform="translate(-275.47729,-584.61255)">
    <rect
       style="fill:#111218;fill-opacity:1;stroke:#434343;stroke-width:1;stroke-linecap:round;stroke-linejoin:round;stroke-miterlimit:4;stroke-opacity:0.63819095;stroke-dasharray:none"
       id="rect4672"
       width="448"
       height="281"
       x="475.47729"
       y="289.53918" />
    <path
       inkscape:connector-curvature="0"
       style="fill:none;stroke:#515151;stroke-width:0;stroke-linecap:round;stroke-linejoin:round;stroke-miterlimit:4;stroke-opacity:0.52156863;stroke-dasharray:none;display:inline"
       d="m 720.01247,607.91198 c 0,0 -2.42361,1.92362 -4.88458,3.82343 -2.53161,-0.0806 -7.47436,0.49464 -10.16482,1.47569 -2.47848,-1.57428 -4.67434,-3.32034 -4.67434,-3.32034 0,0 -1.8594,3.22532 -3.02968,5.10907 -1.73559,0.92552 -3.46753,1.94309 -5.0206,3.32036 -1.83571,-0.73088 -4.03132,-1.66576 -4.03132,-1.66576 l 2.4732,9.9722 0.37098,0.67079 -0.43281,-0.67079 c 0,0 3.50667,8.5902 5.86147,14.30992 9.97824,13.19905 35.46218,14.11824 46.57035,0.25712 2.1284,-4.80933 4.60061,-11.34476 5.50285,-13.75092 l 0.49464,-1.00617 2.33718,-9.58091 c 0,0 -2.71948,0.89753 -4.37758,1.53159 -0.95147,-1.21856 -2.39474,-2.50916 -4.45175,-3.38743 -1.20904,-2.21979 -2.96782,-5.24322 -2.96782,-5.24322 0,0 -2.11021,1.56868 -4.52597,3.26445 -3.2637,-0.60405 -7.21575,-1.33321 -10.53583,-1.1515 -2.26012,-1.86258 -4.51359,-3.95758 -4.51359,-3.95758 z"
       id="path4019" />
    <path
       style="fill:#a07500;fill-opacity:1;stroke:none"
       d="m 720.14404,609.61258 c 0,0 -2.5151,1.9928 -5.07909,3.97211 -2.6376,-0.084 -7.81091,0.50813 -10.61401,1.53024 -2.58223,-1.6402 -4.85118,-3.45118 -4.85118,-3.45118 0,0 -1.93886,3.34437 -3.15816,5.307 -1.80824,0.96426 -3.62379,2.04882 -5.24188,3.48374 -1.882,-0.7493 -4.0637,-1.66283 -4.13491,-1.69303 l 5.95817,11.06982 c 0.97486,0.76546 1.86787,1.44683 2.76746,2.05117 7.25623,-11.49028 40.97536,-10.43125 48.38162,-0.0651 0.84511,-0.53447 1.63441,-1.08684 3.1256,-2.1814 l 5.40468,-10.67912 c -0.20641,0.0682 -2.76762,0.9279 -4.42793,1.5628 -0.9913,-1.08207 -3.32785,-2.74575 -4.65584,-3.54886 -1.25967,-2.31276 -3.09304,-5.43723 -3.09304,-5.43723 0,0 -2.17148,1.61932 -4.68839,3.38606 -3.40032,-0.62932 -7.51306,-1.39399 -10.97215,-1.20466 -2.35474,-1.94058 -4.72095,-4.10234 -4.72095,-4.10234 z"
       id="path3054"
       inkscape:connector-curvature="0"
       sodipodi:nodetypes="ccccccccccccccccccc" />
    <path
       style="fill:#ffce06;fill-opacity:1;stroke:none"
       d="m 689.51713,629.09921 c 0,0 3.65717,8.94982 6.11056,14.90898 10.39598,13.75166 36.94312,14.70765 48.51631,0.26624 2.73868,-6.18823 6.18421,-15.50801 6.18421,-15.50801 l -3.02407,5.04113 c -3.25198,2.38701 -3.23667,2.33255 -7.50377,4.67634 -2.11468,1.16153 -6.99401,1.86363 -6.99401,1.86363 l -12.81008,-6.65581 -12.8837,6.52268 c 0,0 -4.78037,-0.85165 -6.99399,-1.79707 -2.56068,-1.09364 -4.61474,-2.45889 -7.09608,-4.40723 z"
       id="path3051"
       inkscape:connector-curvature="0"
       sodipodi:nodetypes="cccccscccacc" />
    <g
       id="g3821"
       style="fill:#fff6cb;fill-opacity:1">
      <g
         transform="translate(315.00039,54.000002)"
         style="fill:#fff6cb;fill-opacity:1;stroke:none"
         id="g3972">
        <path
           style="fill:#fff6cb;fill-opacity:1;stroke:none"
           d="m 459.4769,598.61255 0,-39 c 0,0 14.0008,0 19.5004,0 5.4996,0 10.4996,5 10.5,10.5 4e-4,5.5 0,28.5 0,28.5 l -7,0 c 0,0 -3.9e-4,-18 -4e-4,-27 0,-2.71875 -2,-5 -5,-5 -3.66681,0 -11,0 -11,0 l 0,37 z"
           id="path3118"
           inkscape:connector-curvature="0"
           sodipodi:nodetypes="cczzccssccc" />
        <path
           style="fill:#fff6cb;fill-opacity:1;stroke:none"
           d="m 502.4773,598.61255 0,-39 7,0 0,39 z"
           id="path3120"
           inkscape:connector-curvature="0"
           sodipodi:nodetypes="ccccc" />
        <path
           style="fill:#fff6cb;fill-opacity:1;stroke:none"
           d="m 502.4773,550.61255 7,0 0,-8 -7,5 z"
           id="path3122"
           inkscape:connector-curvature="0"
           sodipodi:nodetypes="ccccc" />
        <path
           style="fill:#fff6cb;fill-opacity:1;stroke:none"
           d="m 529.4773,598.61255 -7,0 0,-39 38.5,0 c 6,0 10.49999,4.5 10.5,10.5 l 0,28.5 -7,5 -4e-4,-32 c -4e-5,-3 -2,-5 -5,-5 l -8.9996,0 0,32 -7,0 0,-32 -14,0 z"
           id="path3124"
           inkscape:connector-curvature="0"
           sodipodi:nodetypes="cccssccsscccccc" />
      </g>
    </g>
  </g>
</svg>
