<svg xmlns:svg="http://www.w3.org/2000/svg" xmlns="http://www.w3.org/2000/svg" width="627" height="140" version="1.1"><style>.s0{-inkscape-font-specification:DejaVu Sans Mono;fill:#c17d11;font-family:DejaVu Sans Mono;font-size:35.7;}.s1{-inkscape-font-specification:DejaVu Sans Mono;fill:#c00;font-family:DejaVu Sans Mono;font-size:35.7;}.s2{-inkscape-font-specification:DejaVu Sans Mono;fill:#4e9a06;font-family:DejaVu Sans Mono;font-size:35.7;}</style><g transform="translate(0,-912.36217)"><g transform="matrix(3.3601391,0,0,3.3601391,-52.384026,-75.180678)" style="fill:#000;font-family:Sans;font-size:40;letter-spacing:0;line-height:125;word-spacing:0"><path d="m77.2 293.9 125 0 0 41.7-125 0z" style="fill:#e9b96e;opacity:0.5"/><path d="m91.3 296 0 9.7-3 0 0-9.7 3 0 -6.7 0 0 9.7-3 0 0-9.7 3 0" class="s0"/><path d="m93.5 298.6 7.4 0 0 2.5-4.2 0 0 26.9 4.2 0 0 2.5-7.4 0 0-31.8" class="s1"/><path d="m109.4 314.4c0-0.6 0.2-1.2 0.7-1.7 0.5-0.5 1-0.7 1.6-0.7 0.7 0 1.2 0.2 1.7 0.7 0.5 0.5 0.7 1 0.7 1.7 0 0.7-0.2 1.2-0.7 1.7-0.5 0.5-1 0.7-1.7 0.7-0.7 0-1.2-0.2-1.6-0.7-0.4-0.4-0.6-1-0.6-1.7m2.3-10.6c-1.6 0-2.9 0.9-3.7 2.7-0.8 1.8-1.2 4.5-1.2 8.1 0 3.6 0.4 6.3 1.2 8.1 0.8 1.8 2 2.7 3.7 2.7 1.7 0 2.9-0.9 3.7-2.7 0.8-1.8 1.2-4.5 1.2-8.1 0-3.6-0.4-6.3-1.2-8.1-0.8-1.8-2-2.7-3.7-2.7m0-2.8c2.8 0 4.9 1.1 6.3 3.4 1.4 2.3 2.1 5.6 2.1 10.1 0 4.4-0.7 7.8-2.1 10.1-1.4 2.3-3.5 3.4-6.3 3.4-2.8 0-4.9-1.1-6.3-3.4-1.4-2.3-2.1-5.6-2.1-10.1 0-4.5 0.7-7.8 2.1-10.1 1.4-2.3 3.5-3.4 6.3-3.4" class="s2"/><path d="m124.6 313.1 9.1 0 0 2.9-9.1 0 0-2.9" class="s1"/><path d="m146.4 316.1c1.5 0 2.7-0.5 3.5-1.6 0.9-1.1 1.3-2.6 1.3-4.5 0-1.9-0.4-3.4-1.3-4.5-0.8-1.1-2-1.6-3.5-1.6-1.6 0-2.7 0.5-3.5 1.6-0.8 1-1.2 2.5-1.2 4.6 0 2 0.4 3.5 1.2 4.6 0.8 1 2 1.5 3.5 1.5m-6.3 11 0-3.2c0.7 0.4 1.5 0.8 2.3 1 0.8 0.2 1.7 0.3 2.6 0.3 2.2 0 3.9-0.8 5.1-2.5 1.2-1.7 1.7-4.2 1.7-7.4-0.5 1.2-1.3 2.1-2.3 2.7-1 0.6-2.1 0.9-3.4 0.9-2.5 0-4.5-0.8-5.8-2.3-1.4-1.5-2.1-3.7-2.1-6.6 0-2.8 0.7-5 2.1-6.5 1.4-1.5 3.4-2.3 6-2.3 3 0 5.2 1.1 6.6 3.3 1.4 2.2 2.1 5.6 2.1 10.3 0 4.4-0.8 7.7-2.5 10-1.7 2.3-4.1 3.5-7.4 3.5-0.8 0-1.7-0.1-2.6-0.3-0.9-0.2-1.7-0.4-2.5-0.8" class="s2"/><path d="m165.2 298.6 0 31.8-7.4 0 0-2.5 4.2 0 0-26.9-4.2 0 0-2.5 7.4 0M179.9 305.3l0 7.7 7.8 0 0 3-7.8 0 0 7.7-2.9 0 0-7.7-7.7 0 0-3 7.7 0 0-7.7 2.9 0" class="s1"/><path d="m197.7 296 0 9.7-3 0 0-9.7 3 0 -6.7 0 0 9.7-3 0 0-9.7 3 0" class="s0"/><g transform="translate(-2.0396636,0.18413477)" style="fill:#000;font-family:Sans;font-size:35.7"><path d="m38.6 313.9 0 11.8-3.2 0 0-11.7c0-1.8-0.4-3.2-1.1-4.2-0.7-0.9-1.8-1.4-3.2-1.4-1.7 0-3.1 0.6-4.1 1.7-1 1.1-1.5 2.6-1.5 4.5l0 11-3.2 0 0-19.5 3.2 0 0 3c0.8-1.2 1.7-2.1 2.7-2.6 1-0.6 2.2-0.9 3.6-0.9 2.2 0 3.9 0.7 5.1 2.1 1.2 1.4 1.7 3.4 1.7 6.1M56.4 309.1c-0.4-0.2-0.8-0.4-1.2-0.5-0.4-0.1-0.9-0.2-1.4-0.2-1.8 0-3.2 0.6-4.2 1.8-1 1.2-1.4 2.9-1.4 5.1l0 10.3-3.2 0 0-19.5 3.2 0 0 3c0.7-1.2 1.6-2.1 2.6-2.6 1.1-0.6 2.4-0.9 3.9-0.9 0.2 0 0.5 0 0.7 0.1 0.3 0 0.6 0.1 0.9 0.1l0 3.3M75.7 315.1l0 1.6-14.8 0c0.1 2.2 0.8 3.9 2 5.1 1.2 1.2 2.9 1.7 5 1.7 1.2 0 2.4-0.2 3.6-0.5 1.2-0.3 2.3-0.8 3.5-1.4l0 3c-1.2 0.5-2.3 0.9-3.5 1.1-1.2 0.3-2.4 0.4-3.7 0.4-3.1 0-5.6-0.9-7.4-2.7-1.8-1.8-2.7-4.3-2.7-7.4 0-3.2 0.9-5.7 2.6-7.6 1.7-1.9 4.1-2.8 7-2.8 2.6 0 4.7 0.8 6.2 2.5 1.5 1.7 2.3 4 2.3 6.9m-3.2-0.9c0-1.8-0.5-3.2-1.5-4.2-1-1-2.2-1.6-3.8-1.6-1.8 0-3.2 0.5-4.3 1.5-1.1 1-1.7 2.4-1.8 4.3l11.4 0"/></g></g></g></svg>
